<svg width="125" height="30" viewBox="0 0 125 30" fill="none" xmlns="http://www.w3.org/2000/svg">
<path d="M55.42 22H48.18C46.32 22 45.6 21.04 45.6 19.5V11.06C45.6 9.52 46.32 8.54 48.18 8.54H55.3V11.16H48.52V13.96H54.88V16.58H48.52V19.38H55.42V22ZM64.3805 22.28C60.4405 22.28 57.4005 19.16 57.4005 15.28C57.4005 11.4 60.4005 8.3 64.3805 8.3C66.6805 8.3 68.9605 9.46 69.9605 11.62L67.5805 12.96C66.9005 11.76 65.8605 11.04 64.2605 11.04C62.0005 11.04 60.4005 12.88 60.4005 15.32C60.4005 17.84 62.0205 19.62 64.3805 19.62C65.7005 19.62 66.6605 19.28 67.2805 18.64L67.2605 15.66H70.1005V19.62C69.1205 21.1 67.0405 22.28 64.3805 22.28ZM71.6978 22L75.2578 10.44C75.7178 8.98 76.9178 8.28 78.1778 8.28C79.4578 8.28 80.6578 8.98 81.1178 10.44L84.6778 22H81.6978L80.9178 19.24L75.4578 19.26L74.6778 22H71.6978ZM77.7578 11.3L76.2178 16.64H80.1578L78.6378 11.3C78.5578 11.02 78.4378 10.9 78.1978 10.9C77.9778 10.9 77.8378 11.02 77.7578 11.3ZM92.3622 22H87.2022V8.54H92.4022C95.7622 8.54 97.7822 9.94 97.7822 12.24C97.7822 13.78 96.9622 14.82 95.6822 15.3C97.0222 15.68 97.9222 16.54 97.9222 18.24C97.9222 20.88 95.5822 22 92.3622 22ZM90.1222 10.94V14.14H92.5422C94.1422 14.14 94.8622 13.58 94.8622 12.48C94.8622 11.48 94.0622 10.94 92.5622 10.94H90.1222ZM90.1222 16.54V19.6H92.5222C93.9422 19.6 95.0022 19.28 95.0022 18.04C95.0022 16.9 94.1822 16.54 92.5422 16.54H90.1222ZM110.616 22H103.376C101.516 22 100.796 21.04 100.796 19.5V11.06C100.796 9.52 101.516 8.54 103.376 8.54H110.496V11.16H103.716V13.96H110.076V16.58H103.716V19.38H110.616V22ZM123.317 22H116.077C114.217 22 113.497 21.04 113.497 19.5V11.06C113.497 9.52 114.217 8.54 116.077 8.54H123.197V11.16H116.417V13.96H122.777V16.58H116.417V19.38H123.317V22Z" fill="#F1F0FD"/>
<path d="M12.7826 26.1613C16.2404 24.1381 20.9001 20.8626 22.9382 16.8647C24.6577 13.4917 25.3491 10.1689 25.0277 7.50735C24.7089 4.86698 23.3554 2.70945 20.7721 2.05187C18.1888 1.39429 15.1991 2.44626 12.5707 4.33642C9.92117 6.24175 7.45502 9.11278 5.73549 12.4858C3.69741 16.4837 4.33071 21.1065 5.16825 24.2231C5.93284 27.0682 9.62609 28.0083 12.7826 26.1613Z" stroke="#4688EB" stroke-width="2"/>
<path d="M31.7935 24.5208C32.7545 21.4208 33.5794 16.7858 31.6833 12.7279C30.0911 9.32061 27.7327 6.40131 25.1544 4.44482C22.5949 2.50261 19.6489 1.39837 17.0493 2.0049C14.4498 2.61144 13.0136 4.73818 12.594 7.37549C12.1714 10.0322 12.7368 13.3698 14.329 16.7771C16.2252 20.835 20.7937 24.2115 24.1782 26.2976C27.2483 28.19 30.9217 27.3329 31.7935 24.5208Z" stroke="#4688EB" stroke-width="2"/>
</svg>
