<svg width="125" height="30" viewBox="0 0 125 30" fill="none" xmlns="http://www.w3.org/2000/svg">
<path d="M55.42 22H48.18C46.32 22 45.6 21.04 45.6 19.5V11.06C45.6 9.52 46.32 8.54 48.18 8.54H55.3V11.16H48.52V13.96H54.88V16.58H48.52V19.38H55.42V22ZM64.3805 22.28C60.4405 22.28 57.4005 19.16 57.4005 15.28C57.4005 11.4 60.4005 8.3 64.3805 8.3C66.6805 8.3 68.9605 9.46 69.9605 11.62L67.5805 12.96C66.9005 11.76 65.8605 11.04 64.2605 11.04C62.0005 11.04 60.4005 12.88 60.4005 15.32C60.4005 17.84 62.0205 19.62 64.3805 19.62C65.7005 19.62 66.6605 19.28 67.2805 18.64L67.2605 15.66H70.1005V19.62C69.1205 21.1 67.0405 22.28 64.3805 22.28ZM71.6978 22L75.2578 10.44C75.7178 8.98 76.9178 8.28 78.1778 8.28C79.4578 8.28 80.6578 8.98 81.1178 10.44L84.6778 22H81.6978L80.9178 19.24L75.4578 19.26L74.6778 22H71.6978ZM77.7578 11.3L76.2178 16.64H80.1578L78.6378 11.3C78.5578 11.02 78.4378 10.9 78.1978 10.9C77.9778 10.9 77.8378 11.02 77.7578 11.3ZM92.3622 22H87.2022V8.54H92.4022C95.7622 8.54 97.7822 9.94 97.7822 12.24C97.7822 13.78 96.9622 14.82 95.6822 15.3C97.0222 15.68 97.9222 16.54 97.9222 18.24C97.9222 20.88 95.5822 22 92.3622 22ZM90.1222 10.94V14.14H92.5422C94.1422 14.14 94.8622 13.58 94.8622 12.48C94.8622 11.48 94.0622 10.94 92.5622 10.94H90.1222ZM90.1222 16.54V19.6H92.5222C93.9422 19.6 95.0022 19.28 95.0022 18.04C95.0022 16.9 94.1822 16.54 92.5422 16.54H90.1222ZM110.616 22H103.376C101.516 22 100.796 21.04 100.796 19.5V11.06C100.796 9.52 101.516 8.54 103.376 8.54H110.496V11.16H103.716V13.96H110.076V16.58H103.716V19.38H110.616V22ZM123.317 22H116.077C114.217 22 113.497 21.04 113.497 19.5V11.06C113.497 9.52 114.217 8.54 116.077 8.54H123.197V11.16H116.417V13.96H122.777V16.58H116.417V19.38H123.317V22Z" fill="white"/>
<path d="M12.7825 26.1613C16.2403 24.1381 20.9 20.8627 22.9381 16.8648C24.6576 13.4917 25.349 10.1689 25.0276 7.50738C24.7088 4.86701 23.3553 2.70948 20.772 2.0519C18.1887 1.39432 15.199 2.44629 12.5706 4.33645C9.92105 6.24178 7.4549 9.11281 5.73536 12.4858C3.69729 16.4837 4.33059 21.1065 5.16813 24.2231C5.93272 27.0682 9.62597 28.0083 12.7825 26.1613Z" stroke="white" stroke-width="2"/>
<path d="M31.7936 24.5208C32.7547 21.4208 33.5796 16.7858 31.6834 12.7279C30.0912 9.32061 27.7329 6.40131 25.1545 4.44482C22.595 2.50261 19.649 1.39837 17.0495 2.0049C14.4499 2.61144 13.0137 4.73818 12.5941 7.37549C12.1715 10.0322 12.7369 13.3698 14.3291 16.7771C16.2253 20.835 20.7939 24.2115 24.1783 26.2976C27.2484 28.19 30.9218 27.3329 31.7936 24.5208Z" stroke="white" stroke-width="2"/>
</svg>
