<svg width="403" height="94" viewBox="0 0 403 94" fill="none" xmlns="http://www.w3.org/2000/svg">
<path d="M178.674 67.844H155.332C149.336 67.844 147.014 64.749 147.014 59.784V32.5734C147.014 27.6085 149.336 24.449 155.332 24.449H178.287V32.8958H156.428V41.923H176.933V50.3699H156.428V59.3971H178.674V67.844ZM207.563 68.7467C194.86 68.7467 185.059 58.6878 185.059 46.1787C185.059 33.6696 194.731 23.6752 207.563 23.6752C214.978 23.6752 222.329 27.415 225.553 34.3789L217.879 38.699C215.687 34.8302 212.334 32.509 207.176 32.509C199.889 32.509 194.731 38.4411 194.731 46.3077C194.731 54.4322 199.954 60.1709 207.563 60.1709C211.818 60.1709 214.913 59.0747 216.912 57.0114L216.848 47.4038H226.004V60.1709C222.844 64.9424 216.138 68.7467 207.563 68.7467ZM231.154 67.844L242.631 30.5746C244.114 25.8675 247.983 23.6107 252.045 23.6107C256.172 23.6107 260.041 25.8675 261.524 30.5746L273.001 67.844H263.394L260.879 58.9458L243.276 59.0102L240.761 67.844H231.154ZM250.691 33.3472L245.726 50.5634H258.429L253.528 33.3472C253.27 32.4445 252.883 32.0576 252.11 32.0576C251.4 32.0576 250.949 32.4445 250.691 33.3472ZM297.776 67.844H281.14V24.449H297.905C308.737 24.449 315.25 28.9626 315.25 36.3778C315.25 41.3427 312.606 44.6957 308.479 46.2432C312.799 47.4683 315.701 50.241 315.701 55.7218C315.701 64.2331 308.157 67.844 297.776 67.844ZM290.554 32.1866V42.5034H298.356C303.514 42.5034 305.836 40.6979 305.836 37.1515C305.836 33.9275 303.256 32.1866 298.42 32.1866H290.554ZM290.554 50.241V60.1064H298.291C302.87 60.1064 306.287 59.0747 306.287 55.077C306.287 51.4016 303.643 50.241 298.356 50.241H290.554ZM356.627 67.844H333.285C327.289 67.844 324.968 64.749 324.968 59.784V32.5734C324.968 27.6085 327.289 24.449 333.285 24.449H356.24V32.8958H334.382V41.923H354.886V50.3699H334.382V59.3971H356.627V67.844ZM397.574 67.844H374.232C368.235 67.844 365.914 64.749 365.914 59.784V32.5734C365.914 27.6085 368.235 24.449 374.232 24.449H397.187V32.8958H375.328V41.923H395.833V50.3699H375.328V59.3971H397.574V67.844Z" fill="#73AEFF"/>
<path d="M41.2116 81.6201C52.3593 75.0973 67.3823 64.5372 73.9531 51.648C79.4968 40.7733 81.7259 30.0607 80.6898 21.4798C79.662 12.9672 75.2982 6.01135 66.9696 3.89132C58.641 1.77129 49.0022 5.16283 40.5282 11.2567C31.9862 17.3995 24.0353 26.6557 18.4915 37.5304C11.9208 50.4195 13.9625 65.3234 16.6628 75.3712C19.1278 84.5438 31.0349 87.5748 41.2116 81.6201Z" stroke="#73AEFF" stroke-width="6.448"/>
<path d="M102.502 76.3309C105.601 66.3365 108.26 51.3935 102.147 38.3109C97.0138 27.3256 89.4106 17.9138 81.098 11.6061C72.8462 5.34439 63.3482 1.78432 54.9673 3.73979C46.5865 5.69526 41.956 12.5519 40.6034 21.0545C39.2407 29.6198 41.0637 40.3803 46.197 51.3655C52.3103 64.4481 67.0393 75.3339 77.9506 82.0595C87.8488 88.1605 99.6918 85.3972 102.502 76.3309Z" stroke="#73AEFF" stroke-width="6.448"/>
</svg>
